<?xml version="1.0" encoding="utf-8"?>
<!-- Generator: Adobe Illustrator 22.1.0, SVG Export Plug-In . SVG Version: 6.00 Build 0)  -->
<svg version="1.1" id="Layer_1" xmlns="http://www.w3.org/2000/svg" xmlns:xlink="http://www.w3.org/1999/xlink" x="0px" y="0px"
	 viewBox="0 0 514.2 102.9" style="enable-background:new 0 0 514.2 102.9;" xml:space="preserve">
<style type="text/css">
	.st0{fill:#FFFFFF;}
</style>
<title>Media College Denmark / Medieskolerne</title>
<metadata><?xpacket begin="﻿" id="W5M0MpCehiHzreSzNTczkc9d"?>
<x:xmpmeta xmlns:x="adobe:ns:meta/" x:xmptk="Adobe XMP Core 5.6-c145 79.162955, 2018/05/10-01:07:16        ">
   <rdf:RDF xmlns:rdf="http://www.w3.org/1999/02/22-rdf-syntax-ns#">
      <rdf:Description rdf:about=""
            xmlns:dc="http://purl.org/dc/elements/1.1/"
            xmlns:xmpRights="http://ns.adobe.com/xap/1.0/rights/"
            xmlns:xmp="http://ns.adobe.com/xap/1.0/"
            xmlns:xmpMM="http://ns.adobe.com/xap/1.0/mm/"
            xmlns:stEvt="http://ns.adobe.com/xap/1.0/sType/ResourceEvent#">
         <dc:creator>
            <rdf:Seq>
               <rdf:li>Jorn Ruben Nielsen</rdf:li>
            </rdf:Seq>
         </dc:creator>
         <dc:title>
            <rdf:Alt>
               <rdf:li xml:lang="x-default">Media College Denmark / Medieskolerne</rdf:li>
            </rdf:Alt>
         </dc:title>
         <dc:rights>
            <rdf:Alt>
               <rdf:li xml:lang="x-default">@ 2018 Media College Denmark / Jorn Ruben Nielsen</rdf:li>
            </rdf:Alt>
         </dc:rights>
         <xmpRights:Marked>True</xmpRights:Marked>
         <xmp:MetadataDate>2018-10-04T12:16:17+02:00</xmp:MetadataDate>
         <xmpMM:InstanceID>xmp.iid:d95aacbe-6582-4328-9af8-3bea5547a156</xmpMM:InstanceID>
         <xmpMM:DocumentID>xmp.did:d95aacbe-6582-4328-9af8-3bea5547a156</xmpMM:DocumentID>
         <xmpMM:OriginalDocumentID>xmp.did:d95aacbe-6582-4328-9af8-3bea5547a156</xmpMM:OriginalDocumentID>
         <xmpMM:History>
            <rdf:Seq>
               <rdf:li>
                  <rdf:Description>
                     <stEvt:action>saved</stEvt:action>
                     <stEvt:instanceID>xmp.iid:d95aacbe-6582-4328-9af8-3bea5547a156</stEvt:instanceID>
                     <stEvt:when>2018-10-04T12:16:17+02:00</stEvt:when>
                     <stEvt:softwareAgent>Adobe Bridge CC 2018 (Macintosh)</stEvt:softwareAgent>
                     <stEvt:changed>/metadata</stEvt:changed>
                  </rdf:Description>
               </rdf:li>
            </rdf:Seq>
         </xmpMM:History>
      </rdf:Description>
   </rdf:RDF>
</x:xmpmeta>
                                                                                                    
                                                                                                    
                                                                                                    
                                                                                                    
                                                                                                    
                                                                                                    
                                                                                                    
                                                                                                    
                                                                                                    
                                                                                                    
                                                                                                    
                                                                                                    
                                                                                                    
                                                                                                    
                                                                                                    
                                                                                                    
                                                                                                    
                                                                                                    
                                                                                                    
                                                                                                    
                           
<?xpacket end="w"?></metadata>
<g>
	<g>
		<path class="st0" d="M95.9,22.4l-84-20.1C4.6,0.5,0.3,5,2.5,12.2L27.1,95c2.1,7.2,8.1,8.6,13.2,3.2l59.4-62.7
			C104.9,30,103.2,24.1,95.9,22.4z M79.8,45.9L49.4,78c-8.2,8.7-17.7,6.4-21.1-5L15.7,30.6C12.3,19.1,19,12.1,30.6,14.8l43,10.3
			C85.3,27.9,88,37.3,79.8,45.9z"/>
		<path class="st0" d="M30,60.8c-1,0.1-1.9-0.6-1.9-1.6L25.9,31c-0.1-1,0.9-2.4,2.2-2.5l9.8-1.1c1-0.1,1.8,0.4,2.2,1.3L43.6,40
			c0.5,1.1,1.7,0.4,1.7-0.2l1-11.8c0.1-1,0.7-1.7,1.7-1.8l9.9-1.2c1-0.1,2.5,0.5,2.8,1.9L64.8,55c0.1,1-0.5,1.9-1.5,2l-4.6,0.5
			c-1,0.1-1.6-0.7-1.7-1.6L54.6,39c-0.2-1.1-1.7-1-2,0.2L51,51c-0.1,1-1.1,1.9-2.1,2l-5.7,0.7c-1,0.1-2.1-0.6-2.4-1.5l-4.2-11.1
			c-0.4-0.9-1.8-1-1.9,0.2l1.4,16.9c0.1,1-0.9,2-1.8,2.1L30,60.8z"/>
	</g>
	<g>
		<path class="st0" d="M117.2,42.6V15.1h7.7l6.1,21.5l6.1-21.5h7.8v27.5h-4.5V20h-0.6l-6.5,21.4h-4.7L122.3,20h-0.6v22.5L117.2,42.6
			L117.2,42.6z"/>
		<path class="st0" d="M164.8,38.9l1.1-0.1L166,42c-3,0.6-5.7,0.9-8.1,0.9c-3,0-5.1-0.8-6.4-2.4c-1.3-1.6-1.9-4.2-1.9-7.8
			c0-7.1,2.9-10.7,8.7-10.7c5.6,0,8.4,3.1,8.4,9.2l-0.3,3.1H154c0,1.7,0.4,2.9,1.1,3.6c0.7,0.8,2,1.2,3.9,1.2
			C160.9,39.2,162.8,39.1,164.8,38.9z M162.4,31c0-2-0.3-3.4-0.9-4.2c-0.6-0.8-1.7-1.2-3.2-1.2s-2.6,0.4-3.3,1.2
			c-0.7,0.8-1,2.2-1.1,4.1h8.5V31z"/>
		<path class="st0" d="M187.3,14.2v28.4H183v-1c-2,1-3.7,1.5-5.4,1.5c-2.6,0-4.5-0.8-5.8-2.4c-1.2-1.6-1.8-4.2-1.8-7.9
			s0.7-6.4,2-8.1c1.4-1.7,3.5-2.5,6.3-2.5c1,0,2.5,0.2,4.6,0.5v-8.4L187.3,14.2L187.3,14.2z M182.2,38.4l0.7-0.3V26.2
			c-1.6-0.3-3.1-0.4-4.5-0.4c-2.7,0-4.1,2.2-4.1,6.7c0,2.5,0.3,4.2,0.9,5.1c0.6,0.9,1.6,1.4,3,1.4C179.7,39.1,181,38.9,182.2,38.4z"
			/>
		<path class="st0" d="M192.6,19.1v-4.6h4.4v4.6H192.6z M192.6,42.6V22.5h4.4v20.1H192.6z"/>
		<path class="st0" d="M217.1,28.7v9.1c0,0.6,0.2,1,0.5,1.3s0.7,0.5,1.3,0.5l-0.1,3.3c-2.3,0-4.1-0.5-5.3-1.5
			c-2.1,1-4.3,1.5-6.5,1.5c-4,0-6-2.1-6-6.4c0-2,0.5-3.5,1.6-4.4c1.1-0.9,2.7-1.5,5-1.6l5.2-0.4v-1.4c0-1.1-0.2-1.8-0.7-2.2
			c-0.5-0.4-1.2-0.6-2.1-0.6c-1.7,0-3.9,0.1-6.4,0.3l-1.3,0.1l-0.2-3.1c2.9-0.7,5.6-1,8-1s4.2,0.5,5.3,1.6
			C216.6,24.7,217.1,26.4,217.1,28.7z M208.1,33.7c-1.8,0.2-2.8,1.2-2.8,3s0.8,2.8,2.4,2.8c1.3,0,2.8-0.2,4.3-0.6l0.7-0.2v-5.3
			L208.1,33.7z"/>
		<path class="st0" d="M238.1,43c-4,0-6.7-1.1-8.2-3.3c-1.4-2.2-2.1-5.9-2.1-10.9s0.7-8.7,2.2-10.8c1.4-2.2,4.2-3.2,8.1-3.2
			c2.4,0,5,0.3,7.9,1l-0.2,3.6c-2.4-0.4-4.8-0.6-7.2-0.6s-4,0.7-4.9,2.1s-1.3,4.1-1.3,8.1c0,3.9,0.4,6.6,1.2,8.1
			c0.8,1.4,2.4,2.1,4.9,2.1s4.8-0.2,7.3-0.6l0.1,3.7C243.2,42.7,240.6,43,238.1,43z"/>
		<path class="st0" d="M250.9,24.7c1.4-1.7,3.7-2.6,6.9-2.6c3.2,0,5.5,0.9,6.9,2.6s2.1,4.3,2.1,7.8s-0.7,6.1-2,7.9
			c-1.3,1.8-3.6,2.6-6.9,2.6c-3.3,0-5.6-0.9-6.9-2.6c-1.3-1.8-2-4.4-2-7.9C248.9,29,249.6,26.4,250.9,24.7z M254.2,37.7
			c0.6,1.1,1.8,1.6,3.6,1.6s3-0.5,3.6-1.6s0.9-2.8,0.9-5.3s-0.3-4.2-1-5.2s-1.8-1.5-3.5-1.5s-2.9,0.5-3.5,1.5c-0.7,1-1,2.7-1,5.2
			S253.6,36.6,254.2,37.7z"/>
		<path class="st0" d="M271.3,42.6V14.2h4.4v28.4H271.3z"/>
		<path class="st0" d="M281.5,42.6V14.2h4.4v28.4H281.5z"/>
		<path class="st0" d="M305.7,38.9l1.1-0.1l0.1,3.2c-3,0.6-5.7,0.9-8.1,0.9c-3,0-5.1-0.8-6.4-2.4c-1.3-1.6-1.9-4.2-1.9-7.8
			c0-7.1,2.9-10.7,8.7-10.7c5.6,0,8.4,3.1,8.4,9.2l-0.3,3.1h-12.4c0,1.7,0.4,2.9,1.1,3.6c0.7,0.8,2,1.2,3.9,1.2
			C301.7,39.2,303.6,39.1,305.7,38.9z M303.2,31c0-2-0.3-3.4-0.9-4.2c-0.6-0.8-1.7-1.2-3.2-1.2s-2.6,0.4-3.3,1.2
			c-0.7,0.8-1,2.2-1.1,4.1h8.5V31z"/>
		<path class="st0" d="M329.3,45.3c0,4.4-3.2,6.6-9.5,6.6c-3,0-5.3-0.4-6.8-1.2s-2.2-2.3-2.2-4.5c0-1,0.2-1.8,0.7-2.5
			s1.3-1.5,2.3-2.3c-0.9-0.6-1.3-1.6-1.3-2.9c0-0.5,0.4-1.4,1.1-2.6l0.4-0.6c-1.9-1.1-2.9-3.2-2.9-6c0-2.4,0.7-4.2,2.2-5.3
			c1.4-1.1,3.4-1.7,5.9-1.7c1.2,0,2.3,0.1,3.5,0.4l0.6,0.1l6.2-0.2V26l-3.3-0.2c0.7,0.9,1.1,2,1.1,3.3c0,2.6-0.7,4.4-2,5.4
			s-3.4,1.5-6.2,1.5c-0.7,0-1.3-0.1-1.8-0.2c-0.4,0.9-0.6,1.6-0.6,2.1s0.2,0.8,0.7,1s1.7,0.3,3.6,0.3c3.2,0,5.4,0.5,6.5,1.3
			C328.7,41.4,329.3,43,329.3,45.3z M315.1,45.7c0,0.9,0.4,1.6,1.1,2s2,0.6,3.8,0.6c3.2,0,4.9-0.9,4.9-2.8c0-1-0.3-1.7-0.9-2
			s-1.7-0.4-3.4-0.5l-3.9-0.2c-0.6,0.5-1,0.9-1.2,1.3C315.2,44.6,315.1,45.1,315.1,45.7z M316.3,31.8c0.6,0.6,1.5,0.9,2.8,0.9
			s2.3-0.3,2.8-0.9c0.6-0.6,0.9-1.5,0.9-2.7s-0.3-2.1-0.9-2.7s-1.5-0.9-2.8-0.9c-2.5,0-3.7,1.2-3.7,3.6
			C315.4,30.3,315.7,31.2,316.3,31.8z"/>
		<path class="st0" d="M347.1,38.9l1.1-0.1l0.1,3.2c-3,0.6-5.7,0.9-8.1,0.9c-3,0-5.1-0.8-6.4-2.4c-1.3-1.6-1.9-4.2-1.9-7.8
			c0-7.1,2.9-10.7,8.7-10.7c5.6,0,8.4,3.1,8.4,9.2l-0.3,3.1h-12.4c0,1.7,0.4,2.9,1.1,3.6c0.7,0.8,2,1.2,3.9,1.2
			C343.1,39.2,345.1,39.1,347.1,38.9z M344.7,31c0-2-0.3-3.4-0.9-4.2c-0.6-0.8-1.7-1.2-3.2-1.2s-2.6,0.4-3.3,1.2
			c-0.7,0.8-1,2.2-1.1,4.1h8.5V31z"/>
		<path class="st0" d="M369,42.6h-9.5V15.1h9.5c4.2,0,7.1,1.1,8.7,3.2s2.3,5.5,2.3,10.1c0,2.3-0.2,4.3-0.5,5.9
			c-0.3,1.6-0.8,3.1-1.6,4.4C376.4,41.3,373.4,42.6,369,42.6z M375.4,28.4c0-3.3-0.4-5.7-1.2-7.2S371.6,19,369,19h-5.1v19.7h5.1
			c2.6,0,4.4-1,5.3-2.9c0.4-1,0.7-2,0.9-3.2C375.3,31.4,375.4,30,375.4,28.4z"/>
		<path class="st0" d="M398.9,38.9l1.1-0.1l0.1,3.2c-3,0.6-5.7,0.9-8.1,0.9c-3,0-5.1-0.8-6.4-2.4c-1.3-1.6-1.9-4.2-1.9-7.8
			c0-7.1,2.9-10.7,8.7-10.7c5.6,0,8.4,3.1,8.4,9.2l-0.3,3.1h-12.4c0,1.7,0.4,2.9,1.1,3.6c0.7,0.8,2,1.2,3.9,1.2
			C395,39.2,396.9,39.1,398.9,38.9z M396.5,31c0-2-0.3-3.4-0.9-4.2c-0.6-0.8-1.7-1.2-3.2-1.2s-2.6,0.4-3.3,1.2
			c-0.7,0.8-1,2.2-1.1,4.1h8.5V31z"/>
		<path class="st0" d="M409.4,42.6H405V22.5h4.3v1.2c2-1.1,3.8-1.7,5.5-1.7c2.7,0,4.5,0.8,5.5,2.3s1.5,4,1.5,7.5v10.7h-4.3V31.9
			c0-2.2-0.2-3.7-0.7-4.6s-1.4-1.4-2.9-1.4c-1.4,0-2.7,0.3-3.9,0.8l-0.6,0.2V42.6z"/>
		<path class="st0" d="M431.3,42.6h-4.4V22.5h4.3v1.2c1.9-1.1,3.6-1.7,5.2-1.7c2.3,0,4,0.7,5.1,2c2.4-1.3,4.9-2,7.3-2
			s4.1,0.7,5.1,2.2s1.5,4,1.5,7.5v10.7h-4.3V31.9c0-2.2-0.2-3.7-0.7-4.6c-0.4-0.9-1.4-1.4-2.7-1.4c-1.2,0-2.5,0.3-3.9,0.8l-0.7,0.3
			c0.2,0.5,0.3,2.2,0.3,5.1v10.4h-4.3V32.3c0-2.4-0.2-4-0.6-4.9s-1.4-1.4-2.8-1.4c-1.3,0-2.6,0.3-3.7,0.8l-0.6,0.2L431.3,42.6
			L431.3,42.6z"/>
		<path class="st0" d="M475.4,28.7v9.1c0,0.6,0.2,1,0.5,1.3s0.7,0.5,1.3,0.5L477,43c-2.3,0-4.1-0.5-5.3-1.5c-2.1,1-4.3,1.5-6.5,1.5
			c-4,0-6-2.1-6-6.4c0-2,0.5-3.5,1.6-4.4c1.1-0.9,2.7-1.5,5-1.6l5.2-0.4v-1.4c0-1.1-0.2-1.8-0.7-2.2c-0.5-0.4-1.2-0.6-2.1-0.6
			c-1.7,0-3.8,0.1-6.4,0.3l-1.3,0.1l-0.2-3.1c2.9-0.7,5.6-1,8-1s4.2,0.5,5.3,1.6C474.8,24.7,475.4,26.4,475.4,28.7z M466.4,33.7
			c-1.8,0.2-2.8,1.2-2.8,3s0.8,2.8,2.4,2.8c1.3,0,2.8-0.2,4.3-0.6l0.7-0.2v-5.3L466.4,33.7z"/>
		<path class="st0" d="M480.9,42.6V22.5h4.3v2.4c2.3-1.5,4.5-2.4,6.8-2.8v4.4c-2.3,0.5-4.3,1-5.9,1.8l-0.9,0.4v14L480.9,42.6
			L480.9,42.6z"/>
		<path class="st0" d="M499.7,42.6h-4.4V14.2h4.4v16.4l2.5-0.2l4.7-7.8h4.9L506,32l6.1,10.7h-4.9l-4.9-8.5l-2.6,0.3L499.7,42.6
			L499.7,42.6z"/>
		<path class="st0" d="M115.1,80.3l9-22.2l2.1,0.8l-9,22.1L115.1,80.3z"/>
		<path class="st0" d="M136.8,80.7v-22h4.4l6.2,18.6l6.2-18.6h4.4v22h-2.4V61.3h-0.4l-6.4,18.6h-2.7l-6.4-18.6h-0.4v19.4
			C139.3,80.7,136.8,80.7,136.8,80.7z"/>
		<path class="st0" d="M173.7,78.7l0.9-0.1l0.1,1.9c-2.4,0.3-4.5,0.5-6.2,0.5c-2.3,0-3.9-0.7-4.9-2s-1.4-3.4-1.4-6.2
			c0-5.6,2.2-8.4,6.6-8.4c2.1,0,3.7,0.6,4.8,1.8c1.1,1.2,1.6,3.1,1.6,5.6l-0.1,1.8h-10.5c0,1.8,0.3,3.1,1,3.9
			c0.6,0.8,1.7,1.3,3.3,1.3C170.5,78.9,172.1,78.8,173.7,78.7z M172.9,71.8c0-1.9-0.3-3.3-0.9-4.1c-0.6-0.8-1.6-1.2-3-1.2
			s-2.5,0.4-3.2,1.3c-0.7,0.8-1.1,2.2-1.1,4.1h8.2V71.8z"/>
		<path class="st0" d="M191.2,57.9v22.8h-2.3v-1.1c-1.6,0.9-3.2,1.4-4.8,1.4c-0.8,0-1.6-0.1-2.2-0.3c-0.6-0.2-1.2-0.6-1.8-1.1
			c-1.1-1.1-1.7-3.3-1.7-6.3c0-3.1,0.5-5.3,1.5-6.7c1-1.4,2.7-2,5.1-2c1.2,0,2.5,0.1,3.9,0.4v-7L191.2,57.9L191.2,57.9z M182.9,78.6
			c0.4,0.1,0.9,0.2,1.5,0.2s1.3-0.1,2-0.3c0.8-0.2,1.3-0.4,1.8-0.6l0.6-0.3V66.9c-1.4-0.3-2.6-0.4-3.8-0.4c-1.6,0-2.7,0.5-3.4,1.5
			c-0.6,1-1,2.6-1,4.8c0,2.5,0.4,4.1,1.1,5C182.2,78.2,182.5,78.5,182.9,78.6z"/>
		<path class="st0" d="M195.8,61.2v-2.8h2.4v2.8H195.8z M195.8,80.7V64.8h2.4v15.9C198.2,80.7,195.8,80.7,195.8,80.7z"/>
		<path class="st0" d="M213.5,78.7l0.9-0.1l0.1,1.9c-2.4,0.3-4.5,0.5-6.2,0.5c-2.3,0-3.9-0.7-4.9-2s-1.4-3.4-1.4-6.2
			c0-5.6,2.2-8.4,6.6-8.4c2.1,0,3.7,0.6,4.8,1.8c1.1,1.2,1.6,3.1,1.6,5.6l-0.1,1.8h-10.5c0,1.8,0.3,3.1,1,3.9
			c0.6,0.8,1.7,1.3,3.3,1.3C210.3,78.9,211.9,78.8,213.5,78.7z M212.7,71.8c0-1.9-0.3-3.3-0.9-4.1c-0.6-0.8-1.6-1.2-3-1.2
			s-2.5,0.4-3.2,1.3c-0.7,0.8-1.1,2.2-1.1,4.1h8.2V71.8z"/>
		<path class="st0" d="M223.7,66.6c-2.3,0-3.5,0.8-3.5,2.4c0,0.7,0.3,1.3,0.8,1.6c0.5,0.3,1.7,0.6,3.6,1s3.2,0.8,4,1.4
			s1.2,1.7,1.2,3.3c0,1.6-0.5,2.8-1.6,3.6c-1,0.8-2.6,1.1-4.6,1.1c-1.3,0-2.9-0.1-4.6-0.4l-1-0.2l0.1-2.1c2.4,0.4,4.2,0.5,5.5,0.5
			c1.2,0,2.2-0.2,2.8-0.6s1-1,1-2c0-0.9-0.3-1.5-0.8-1.9c-0.6-0.3-1.8-0.6-3.6-0.9c-1.9-0.3-3.2-0.7-4-1.3c-0.8-0.6-1.2-1.6-1.2-3.2
			c0-1.5,0.5-2.7,1.6-3.4c1.1-0.7,2.4-1.1,4.1-1.1c1.3,0,2.9,0.1,4.9,0.4l0.9,0.2l-0.1,2C226.9,66.8,225.1,66.6,223.7,66.6z"/>
		<path class="st0" d="M235.9,80.7h-2.4V57.9h2.4v13.5l2.5-0.1l4.5-6.4h2.7l-5.2,7.3l5.4,8.6h-2.7l-4.7-7.4l-2.5,0.1V80.7z"/>
		<path class="st0" d="M247.6,72.7c0-2.9,0.5-5,1.6-6.3c1-1.3,2.8-1.9,5.3-1.9c2.5,0,4.2,0.6,5.2,1.9s1.5,3.4,1.5,6.3
			s-0.5,5-1.5,6.3s-2.8,2-5.3,2c-2.6,0-4.4-0.7-5.3-2C248.1,77.7,247.6,75.6,247.6,72.7z M250.1,72.6c0,2.3,0.3,3.9,0.8,4.9
			c0.6,0.9,1.7,1.4,3.5,1.4s3-0.5,3.5-1.4c0.6-0.9,0.8-2.5,0.8-4.9c0-2.3-0.3-3.9-0.9-4.8s-1.8-1.3-3.4-1.3c-1.7,0-2.8,0.4-3.4,1.3
			C250.4,68.7,250.1,70.3,250.1,72.6z"/>
		<path class="st0" d="M265.3,80.7V57.9h2.4v22.8H265.3z"/>
		<path class="st0" d="M283.2,78.7l0.9-0.1l0.1,1.9c-2.4,0.3-4.5,0.5-6.2,0.5c-2.3,0-3.9-0.7-4.9-2s-1.4-3.4-1.4-6.2
			c0-5.6,2.2-8.4,6.6-8.4c2.1,0,3.7,0.6,4.8,1.8c1.1,1.2,1.6,3.1,1.6,5.6l-0.1,1.8h-10.5c0,1.8,0.3,3.1,1,3.9
			c0.6,0.8,1.7,1.3,3.3,1.3C280,78.9,281.6,78.8,283.2,78.7z M282.3,71.8c0-1.9-0.3-3.3-0.9-4.1c-0.6-0.8-1.6-1.2-3-1.2
			s-2.5,0.4-3.2,1.3c-0.7,0.8-1.1,2.2-1.1,4.1h8.2V71.8z"/>
		<path class="st0" d="M288.4,80.7V64.8h2.3V67c1.8-1.3,3.8-2.1,5.8-2.5v2.4c-0.9,0.2-1.8,0.4-2.8,0.8s-1.7,0.7-2.2,1l-0.8,0.4v11.7
			h-2.3V80.7z"/>
		<path class="st0" d="M301.8,80.7h-2.4V64.8h2.3v1.1c1.7-1,3.4-1.4,4.9-1.4c2.1,0,3.5,0.6,4.3,1.7c0.7,1.1,1.1,3.2,1.1,6.1v8.4
			h-2.3v-8.3c0-2.2-0.2-3.7-0.7-4.5c-0.4-0.8-1.4-1.2-2.8-1.2c-0.7,0-1.4,0.1-2.1,0.3c-0.8,0.2-1.3,0.4-1.7,0.6l-0.6,0.3L301.8,80.7
			L301.8,80.7z"/>
		<path class="st0" d="M327.3,78.7l0.9-0.1l0.1,1.9c-2.4,0.3-4.5,0.5-6.2,0.5c-2.3,0-3.9-0.7-4.9-2s-1.4-3.4-1.4-6.2
			c0-5.6,2.2-8.4,6.6-8.4c2.1,0,3.7,0.6,4.8,1.8c1.1,1.2,1.6,3.1,1.6,5.6l-0.1,1.8h-10.5c0,1.8,0.3,3.1,1,3.9
			c0.6,0.8,1.7,1.3,3.3,1.3S325.6,78.8,327.3,78.7z M326.4,71.8c0-1.9-0.3-3.3-0.9-4.1c-0.6-0.8-1.6-1.2-3-1.2s-2.5,0.4-3.2,1.3
			c-0.7,0.8-1.1,2.2-1.1,4.1h8.2V71.8z"/>
	</g>
</g>
</svg>
